#!OML:ASF Y:\EmotionMaleHayes\Project 1\Capture day 1\Session 1\Male1.ASF
:FULLY-SPECIFIED
:DEGREES
663
root 22.729 16.6415 -0.0956915 689.716 80.5043 690.748
lowerback 1.93681 4.8594 3.69233
upperback -0.468307 6.56555 -0.499286
thorax -1.09093 3.25421 -2.7255
lowerneck -20.4889 -6.41845 -4.96557
upperneck 15.3581 -8.30977 5.0313
head 8.56793 -3.6767 1.38787
rclavicle -4.44222e-014 1.74931e-014
rhumerus -29.0973 26.4172 -94.3133
rradius 58.6434
rwrist -6.54743
rhand -8.90324 -30.961
rfingers 7.12502
rthumb 17.0396 -60.2337
lclavicle -4.44222e-014 1.74931e-014
lhumerus -48.4898 -3.90181 85.7443
lradius 28.6884
lwrist -6.51269
lhand -11.6822 -24.0221
lfingers 7.12502
lthumb 14.3633 5.46095
rfemur 23.8967 5.84974 28.4327
rtibia 12.5803
rfoot -19.0532 2.37144
rtoes 5.66806
lfemur -13.6024 7.13491 -9.37508
ltibia 4.07052
lfoot 3.59668 9.69336
ltoes 10.5434
664
root 22.8795 16.6659 -0.107872 691.204 80.8773 692.444
lowerback 2.08113 4.7983 3.22037
upperback -0.455776 6.47506 -0.645437
thorax -1.1999 3.20991 -2.62887
lowerneck -20.4496 -6.47946 -4.83952
upperneck 15.488 -8.41068 4.89284
head 8.59822 -3.7302 1.30692
rclavicle 6.11884e-015 7.95139e-016
rhumerus -29.8428 26.3112 -94.6987
rradius 58.6633
rwrist -6.73073
rhand -8.44705 -31.3755
rfingers 7.12502
rthumb 17.4787 -60.6097
lclavicle 6.11884e-015 7.95139e-016
lhumerus -48.2366 -3.94946 85.6136
lradius 28.3183
lwrist -7.36208
lhand -11.3714 -23.9462
lfingers 7.12502
lthumb 14.6627 5.51534
rfemur 24.2447 6.27648 28.2314
rtibia 13.2139
rfoot -18.3568 1.91999
rtoes 5.76225
lfemur -13.1196 7.51287 -9.99991
ltibia 4.55534
lfoot 3.54648 8.4246
ltoes 10.667
665
root 23.0338 16.6895 -0.114485 692.475 81.0718 693.973
lowerback 2.22671 4.73183 2.7169
upperback -0.442228 6.37656 -0.675884
thorax -1.32474 3.16221 -2.39664
lowerneck -21.0804 -6.36147 -4.55655
upperneck 15.8133 -8.2719 4.64776
head 8.78648 -3.65766 1.18091
rclavicle -6.73818e-014 -1.59028e-015
rhumerus -30.6577 26.2481 -95.1349
rradius 58.5419
rwrist -6.8369
rhand -8.25185 -31.6237
rfingers 7.12502
rthumb 17.6665 -60.8412
lclavicle -6.73818e-014 -1.59028e-015
lhumerus -47.8966 -3.58968 85.3254
lradius 27.6972
lwrist -8.39402
lhand -11.2432 -24.2991
lfingers 7.12502
lthumb 14.7862 5.15347
rfemur 24.6167 6.79381 28.2311
rtibia 13.9171
rfoot -17.5695 1.38552
rtoes 5.93585
lfemur -12.4846 7.71851 -10.3854
ltibia 4.96499
lfoot 3.36567 7.50507
ltoes 10.8964
666
root 23.1848 16.7219 -0.13427 693.18 81.7275 695.034
lowerback 2.46049 4.51305 2.27488
upperback -0.376453 6.07553 -0.809132
thorax -1.43672 3.01392 -2.30179
lowerneck -20.6419 -6.38508 -4.73022
upperneck 15.5818 -8.3209 4.94658
head 8.65673 -3.66995 1.31509
rclavicle 4.96962e-015 -3.18055e-015
rhumerus -31.3741 26.0681 -95.629
rradius 58.2374
rwrist -6.8789
rhand -8.37839 -31.655
rfingers 7.12502
rthumb 17.5447 -60.8834
lclavicle 4.96962e-015 -3.18055e-015
lhumerus -47.6068 -3.39498 85.0511
lradius 27.2893
lwrist -9.10767
lhand -11.2329 -24.6132
lfingers 7.12502
lthumb 14.7961 4.83863
rfemur 25.0468 6.87946 27.933
rtibia 14.6326
rfoot -16.5217 0.902031
rtoes 6.78378
lfemur -11.8292 7.117 -11.0872
ltibia 5.21817
lfoot 3.20892 7.0113
ltoes 11.3654
667
root 23.3276 16.7388 -0.145712 698.547 81.7451 700.171
lowerback 2.2259 4.63863 1.46886
upperback -0.489384 6.21303 -1.08536
thorax -1.46854 3.08786 -2.13026
lowerneck -19.8662 -6.35264 -5.07563
upperneck 14.7593 -8.31994 5.7173
head 8.298 -3.63509 1.65388
rclavicle -7.28794e-014 2.62396e-014
rhumerus -32.0373 25.6823 -96.1144
rradius 57.9401
rwrist -7.00782
rhand -8.45166 -31.8848
rfingers 7.12502
rthumb 17.4742 -61.1194
lclavicle -7.28794e-014 2.62396e-014
lhumerus -47.3332 -3.72553 84.9662
lradius 27.121
lwrist -9.31989
lhand -11.1454 -24.5612
lfingers 7.12502
lthumb 14.8804 4.88441
rfemur 24.6812 7.34145 27.0706
rtibia 15.567
rfoot -15.311 0.978072
rtoes 7.67171
lfemur -11.6483 7.03906 -12.019
ltibia 5.39746
lfoot 2.82532 6.94534
ltoes 11.8458
668
root 23.4905 16.7735 -0.177775 705.031 82.6728 706.887
lowerback 2.18635 4.47894 0.525751
upperback -0.479336 5.97149 -1.47636
thorax -1.50132 2.9756 -2.00137
lowerneck -20.8983 -6.5766 -4.56667
upperneck 16.0915 -8.62301 4.82174
head 8.87701 -3.80093 1.19221
rclavicle 7.66563e-015 2.46493e-014
rhumerus -32.9916 25.2216 -96.5972
rradius 57.6578
rwrist -7.03547
rhand -8.5454 -32.0506
rfingers 7.12502
rthumb 17.384 -61.2932
lclavicle 7.66563e-015 2.46493e-014
lhumerus -47.2012 -4.06713 84.9838
lradius 26.9218
lwrist -9.62946
lhand -10.8388 -24.0259
lfingers 7.12502
lthumb 15.1757 5.39759
rfemur 25.1308 6.93324 25.4836
rtibia 15.9128
rfoot -14.1394 0.987858
rtoes 7.68704
lfemur -10.9589 6.3226 -13.8337
ltibia 5.3759
lfoot 2.45886 6.54023
ltoes 12.2123
